<?xml version="1.0" encoding="UTF-8" standalone="no"?>
<!DOCTYPE svg PUBLIC "-//W3C//DTD SVG 1.1//EN"
 "http://www.w3.org/Graphics/SVG/1.1/DTD/svg11.dtd">
<!-- Generated by graphviz version 2.43.0 (0)
 -->
<!-- Title: g Pages: 1 -->
<svg width="1898pt" height="548pt"
 viewBox="0.00 0.00 1897.99 548.00" xmlns="http://www.w3.org/2000/svg" xmlns:xlink="http://www.w3.org/1999/xlink">
<g id="graph0" class="graph" transform="scale(1 1) rotate(0) translate(4 544)">
<title>g</title>
<polygon fill="white" stroke="transparent" points="-4,4 -4,-544 1893.99,-544 1893.99,4 -4,4"/>
<!-- 0x56497a99cb70 -->
<g id="node1" class="node">
<title>0x56497a99cb70</title>
<ellipse fill="yellow" stroke="black" cx="58.49" cy="-522" rx="58.49" ry="18"/>
<text text-anchor="middle" x="58.49" y="-518.3" font-family="Times,serif" font-size="14.00">move_unit</text>
</g>
<!-- 0x56497ab65b30 -->
<g id="node2" class="node">
<title>0x56497ab65b30</title>
<polygon fill="none" stroke="black" points="118.49,-324 91.49,-306 118.49,-288 145.49,-306 118.49,-324"/>
</g>
<!-- 0x56497a99cb70&#45;&gt;0x56497ab65b30 -->
<g id="edge1" class="edge">
<title>0x56497a99cb70&#45;&gt;0x56497ab65b30</title>
<path fill="none" stroke="black" d="M45.65,-504.26C23.79,-473.6 -15.56,-407.21 13.49,-360 29.77,-333.56 63.75,-319.83 88.67,-313.04"/>
<polygon fill="black" stroke="black" points="89.52,-316.43 98.38,-310.61 87.83,-309.64 89.52,-316.43"/>
</g>
<!-- 0x56497ab5ccd0 -->
<g id="node3" class="node">
<title>0x56497ab5ccd0</title>
<polygon fill="none" stroke="black" points="122.49,-468 95.49,-450 122.49,-432 149.49,-450 122.49,-468"/>
</g>
<!-- 0x56497a99cb70&#45;&gt;0x56497ab5ccd0 -->
<g id="edge2" class="edge">
<title>0x56497a99cb70&#45;&gt;0x56497ab5ccd0</title>
<path fill="none" stroke="black" d="M73.66,-504.41C83.32,-493.84 95.85,-480.15 105.79,-469.27"/>
<polygon fill="black" stroke="black" points="108.64,-471.34 112.81,-461.6 103.47,-466.62 108.64,-471.34"/>
</g>
<!-- 0x56497ab5fc20 -->
<g id="node7" class="node">
<title>0x56497ab5fc20</title>
<polygon fill="none" stroke="black" points="137.49,-252 81.49,-252 81.49,-216 137.49,-216 137.49,-252"/>
<text text-anchor="middle" x="109.49" y="-230.3" font-family="Times,serif" font-size="14.00">shoot</text>
</g>
<!-- 0x56497ab65b30&#45;&gt;0x56497ab5fc20 -->
<g id="edge17" class="edge">
<title>0x56497ab65b30&#45;&gt;0x56497ab5fc20</title>
<path fill="none" stroke="black" d="M116.45,-289.12C115.44,-281.23 114.18,-271.48 113.02,-262.43"/>
<polygon fill="black" stroke="black" points="116.46,-261.76 111.72,-252.29 109.52,-262.66 116.46,-261.76"/>
</g>
<!-- 0x56497ab65a40 -->
<g id="node11" class="node">
<title>0x56497ab65a40</title>
<polygon fill="none" stroke="black" points="256.99,-180 161.99,-180 161.99,-144 256.99,-144 256.99,-180"/>
<text text-anchor="middle" x="209.49" y="-158.3" font-family="Times,serif" font-size="14.00">do_nothing</text>
</g>
<!-- 0x56497ab65b30&#45;&gt;0x56497ab65a40 -->
<g id="edge16" class="edge">
<title>0x56497ab65b30&#45;&gt;0x56497ab65a40</title>
<path fill="none" stroke="black" d="M126.25,-292.89C140.96,-269.94 173.2,-219.64 192.96,-188.81"/>
<polygon fill="black" stroke="black" points="195.97,-190.6 198.42,-180.29 190.07,-186.82 195.97,-190.6"/>
</g>
<!-- 0x56497ab59e40 -->
<g id="node4" class="node">
<title>0x56497ab59e40</title>
<polygon fill="none" stroke="black" points="76.49,-396 22.49,-396 22.49,-360 76.49,-360 76.49,-396"/>
<text text-anchor="middle" x="49.49" y="-374.3" font-family="Times,serif" font-size="14.00">turn</text>
</g>
<!-- 0x56497ab5ccd0&#45;&gt;0x56497ab59e40 -->
<g id="edge7" class="edge">
<title>0x56497ab5ccd0&#45;&gt;0x56497ab59e40</title>
<path fill="none" stroke="black" d="M109.28,-440.7C97.76,-431.55 81.35,-416.43 68.51,-403.44"/>
<polygon fill="black" stroke="black" points="70.9,-400.87 61.44,-396.1 65.86,-405.73 70.9,-400.87"/>
</g>
<!-- 0x56497ab5b2a0 -->
<g id="node5" class="node">
<title>0x56497ab5b2a0</title>
<polygon fill="none" stroke="black" points="149.99,-396 94.99,-396 94.99,-360 149.99,-360 149.99,-396"/>
<text text-anchor="middle" x="122.49" y="-374.3" font-family="Times,serif" font-size="14.00">move</text>
</g>
<!-- 0x56497ab5ccd0&#45;&gt;0x56497ab5b2a0 -->
<g id="edge8" class="edge">
<title>0x56497ab5ccd0&#45;&gt;0x56497ab5b2a0</title>
<path fill="none" stroke="black" d="M117.04,-435.5C115.88,-427.19 115.5,-416.23 115.9,-406.18"/>
<polygon fill="black" stroke="black" points="119.39,-406.4 116.59,-396.18 112.41,-405.91 119.39,-406.4"/>
</g>
<!-- 0x56497ab5d500 -->
<g id="node6" class="node">
<title>0x56497ab5d500</title>
<polygon fill="none" stroke="black" points="256.49,-396 168.49,-396 168.49,-360 256.49,-360 256.49,-396"/>
<text text-anchor="middle" x="212.49" y="-374.3" font-family="Times,serif" font-size="14.00">end_move</text>
</g>
<!-- 0x56497ab5ccd0&#45;&gt;0x56497ab5d500 -->
<g id="edge9" class="edge">
<title>0x56497ab5ccd0&#45;&gt;0x56497ab5d500</title>
<path fill="none" stroke="black" d="M131.84,-437.75C142.52,-428.21 160.1,-414.2 176.19,-402.26"/>
<polygon fill="black" stroke="black" points="178.42,-404.97 184.42,-396.24 174.29,-399.32 178.42,-404.97"/>
</g>
<!-- 0x56497ab59e40&#45;&gt;0x56497ab65b30 -->
<g id="edge3" class="edge">
<title>0x56497ab59e40&#45;&gt;0x56497ab65b30</title>
<path fill="none" stroke="black" d="M66.55,-359.7C77.08,-349.01 90.56,-335.34 101.15,-324.6"/>
<polygon fill="black" stroke="black" points="103.74,-326.96 108.26,-317.38 98.75,-322.05 103.74,-326.96"/>
</g>
<!-- 0x56497ab59e40&#45;&gt;0x56497ab5ccd0 -->
<g id="edge4" class="edge">
<title>0x56497ab59e40&#45;&gt;0x56497ab5ccd0</title>
<path fill="none" stroke="black" d="M73.15,-396.03C84.69,-406.08 98.08,-418.84 108.11,-429.32"/>
<polygon fill="black" stroke="black" points="105.68,-431.85 115.05,-436.81 110.82,-427.09 105.68,-431.85"/>
</g>
<!-- 0x56497ab5b2a0&#45;&gt;0x56497ab65b30 -->
<g id="edge5" class="edge">
<title>0x56497ab5b2a0&#45;&gt;0x56497ab65b30</title>
<path fill="none" stroke="black" d="M121.51,-359.7C121.06,-351.87 120.52,-342.44 120.02,-333.73"/>
<polygon fill="black" stroke="black" points="123.51,-333.41 119.44,-323.62 116.52,-333.81 123.51,-333.41"/>
</g>
<!-- 0x56497ab5b2a0&#45;&gt;0x56497ab5ccd0 -->
<g id="edge6" class="edge">
<title>0x56497ab5b2a0&#45;&gt;0x56497ab5ccd0</title>
<path fill="none" stroke="black" d="M128.4,-396.18C129.31,-404.98 129.49,-415.84 128.92,-425.41"/>
<polygon fill="black" stroke="black" points="125.42,-425.22 127.95,-435.5 132.39,-425.88 125.42,-425.22"/>
</g>
<!-- 0x56497ab5d500&#45;&gt;0x56497ab65b30 -->
<g id="edge10" class="edge">
<title>0x56497ab5d500&#45;&gt;0x56497ab65b30</title>
<path fill="none" stroke="black" d="M189.26,-359.7C173.72,-348.12 153.47,-333.04 138.61,-321.98"/>
<polygon fill="black" stroke="black" points="140.68,-319.16 130.57,-315.99 136.5,-324.77 140.68,-319.16"/>
</g>
<!-- 0x56497ab5d500&#45;&gt;0x56497ab5ccd0 -->
<g id="edge11" class="edge">
<title>0x56497ab5d500&#45;&gt;0x56497ab5ccd0</title>
<path fill="none" stroke="black" d="M196.39,-396.11C182.05,-408.26 161.23,-424.33 145.23,-435.56"/>
<polygon fill="black" stroke="black" points="143.19,-432.71 136.9,-441.24 147.14,-438.49 143.19,-432.71"/>
</g>
<!-- 0x56497ab60cb0 -->
<g id="node8" class="node">
<title>0x56497ab60cb0</title>
<polygon fill="none" stroke="black" points="143.99,-180 66.99,-180 66.99,-144 143.99,-144 143.99,-180"/>
<text text-anchor="middle" x="105.49" y="-158.3" font-family="Times,serif" font-size="14.00">roll_dice</text>
</g>
<!-- 0x56497ab5fc20&#45;&gt;0x56497ab60cb0 -->
<g id="edge12" class="edge">
<title>0x56497ab5fc20&#45;&gt;0x56497ab60cb0</title>
<path fill="none" stroke="black" d="M108.51,-215.7C108.07,-207.98 107.54,-198.71 107.04,-190.11"/>
<polygon fill="black" stroke="black" points="110.54,-189.89 106.47,-180.1 103.55,-190.29 110.54,-189.89"/>
</g>
<!-- 0x56497ab60eb0 -->
<g id="node9" class="node">
<title>0x56497ab60eb0</title>
<polygon fill="none" stroke="black" points="153.99,-108 76.99,-108 76.99,-72 153.99,-72 153.99,-108"/>
<text text-anchor="middle" x="115.49" y="-86.3" font-family="Times,serif" font-size="14.00">roll_dice</text>
</g>
<!-- 0x56497ab60cb0&#45;&gt;0x56497ab60eb0 -->
<g id="edge13" class="edge">
<title>0x56497ab60cb0&#45;&gt;0x56497ab60eb0</title>
<path fill="none" stroke="black" d="M107.97,-143.7C109.07,-135.98 110.39,-126.71 111.62,-118.11"/>
<polygon fill="black" stroke="black" points="115.1,-118.5 113.05,-108.1 108.17,-117.51 115.1,-118.5"/>
</g>
<!-- 0x56497ab65c90 -->
<g id="node10" class="node">
<title>0x56497ab65c90</title>
<ellipse fill="none" stroke="black" cx="148.49" cy="-18" rx="27" ry="18"/>
<text text-anchor="middle" x="148.49" y="-14.3" font-family="Times,serif" font-size="14.00">ret</text>
</g>
<!-- 0x56497ab60eb0&#45;&gt;0x56497ab65c90 -->
<g id="edge14" class="edge">
<title>0x56497ab60eb0&#45;&gt;0x56497ab65c90</title>
<path fill="none" stroke="black" d="M123.65,-71.7C127.46,-63.61 132.08,-53.81 136.3,-44.87"/>
<polygon fill="black" stroke="black" points="139.56,-46.16 140.66,-35.62 133.23,-43.18 139.56,-46.16"/>
</g>
<!-- 0x56497ab65a40&#45;&gt;0x56497ab65c90 -->
<g id="edge15" class="edge">
<title>0x56497ab65a40&#45;&gt;0x56497ab65c90</title>
<path fill="none" stroke="black" d="M202.14,-143.87C191.59,-119.33 172.1,-73.94 159.74,-45.17"/>
<polygon fill="black" stroke="black" points="162.85,-43.55 155.69,-35.75 156.42,-46.32 162.85,-43.55"/>
</g>
<!-- 0x56497a913190 -->
<g id="node12" class="node">
<title>0x56497a913190</title>
<polygon fill="none" stroke="black" points="368.99,-468 291.99,-468 291.99,-432 368.99,-432 368.99,-468"/>
<text text-anchor="middle" x="330.49" y="-446.3" font-family="Times,serif" font-size="14.00">roll_dice</text>
</g>
<!-- 0x56497a973b70 -->
<g id="node13" class="node">
<title>0x56497a973b70</title>
<polygon fill="none" stroke="black" points="368.99,-396 291.99,-396 291.99,-360 368.99,-360 368.99,-396"/>
<text text-anchor="middle" x="330.49" y="-374.3" font-family="Times,serif" font-size="14.00">roll_dice</text>
</g>
<!-- 0x56497a913190&#45;&gt;0x56497a973b70 -->
<g id="edge18" class="edge">
<title>0x56497a913190&#45;&gt;0x56497a973b70</title>
<path fill="none" stroke="black" d="M330.49,-431.7C330.49,-423.98 330.49,-414.71 330.49,-406.11"/>
<polygon fill="black" stroke="black" points="333.99,-406.1 330.49,-396.1 326.99,-406.1 333.99,-406.1"/>
</g>
<!-- 0x56497a9cca00 -->
<g id="node15" class="node">
<title>0x56497a9cca00</title>
<polygon fill="none" stroke="black" points="310.99,-324 233.99,-324 233.99,-288 310.99,-288 310.99,-324"/>
<text text-anchor="middle" x="272.49" y="-302.3" font-family="Times,serif" font-size="14.00">roll_dice</text>
</g>
<!-- 0x56497a973b70&#45;&gt;0x56497a9cca00 -->
<g id="edge20" class="edge">
<title>0x56497a973b70&#45;&gt;0x56497a9cca00</title>
<path fill="none" stroke="black" d="M316.16,-359.7C309.2,-351.3 300.72,-341.07 293.09,-331.86"/>
<polygon fill="black" stroke="black" points="295.74,-329.57 286.67,-324.1 290.35,-334.04 295.74,-329.57"/>
</g>
<!-- 0x56497a9ce480 -->
<g id="node16" class="node">
<title>0x56497a9ce480</title>
<ellipse fill="none" stroke="black" cx="277.49" cy="-234" rx="27" ry="18"/>
<text text-anchor="middle" x="277.49" y="-230.3" font-family="Times,serif" font-size="14.00">ret</text>
</g>
<!-- 0x56497a973b70&#45;&gt;0x56497a9ce480 -->
<g id="edge21" class="edge">
<title>0x56497a973b70&#45;&gt;0x56497a9ce480</title>
<path fill="none" stroke="black" d="M331.07,-359.9C331.1,-341.45 329.36,-311.55 319.49,-288 314.77,-276.72 306.94,-265.85 299.32,-256.92"/>
<polygon fill="black" stroke="black" points="301.76,-254.4 292.46,-249.31 296.55,-259.08 301.76,-254.4"/>
</g>
<!-- 0x56497a960640 -->
<g id="node14" class="node">
<title>0x56497a960640</title>
<ellipse fill="purple" stroke="black" cx="330.49" cy="-522" rx="58.49" ry="18"/>
<text text-anchor="middle" x="330.49" y="-518.3" font-family="Times,serif" font-size="14.00">roll_melee</text>
</g>
<!-- 0x56497a960640&#45;&gt;0x56497a913190 -->
<g id="edge19" class="edge">
<title>0x56497a960640&#45;&gt;0x56497a913190</title>
<path fill="none" stroke="black" d="M330.49,-503.7C330.49,-495.98 330.49,-486.71 330.49,-478.11"/>
<polygon fill="black" stroke="black" points="333.99,-478.1 330.49,-468.1 326.99,-478.1 333.99,-478.1"/>
</g>
<!-- 0x56497a9cca00&#45;&gt;0x56497a9ce480 -->
<g id="edge22" class="edge">
<title>0x56497a9cca00&#45;&gt;0x56497a9ce480</title>
<path fill="none" stroke="black" d="M273.73,-287.7C274.28,-279.98 274.94,-270.71 275.56,-262.11"/>
<polygon fill="black" stroke="black" points="279.05,-262.33 276.27,-252.1 272.07,-261.83 279.05,-262.33"/>
</g>
<!-- 0x56497a9c9cf0 -->
<g id="node17" class="node">
<title>0x56497a9c9cf0</title>
<ellipse fill="orange" stroke="black" cx="470.49" cy="-522" rx="59.59" ry="18"/>
<text text-anchor="middle" x="470.49" y="-518.3" font-family="Times,serif" font-size="14.00">do_assault</text>
</g>
<!-- 0x56497a9e33c0 -->
<g id="node18" class="node">
<title>0x56497a9e33c0</title>
<ellipse fill="none" stroke="black" cx="477.49" cy="-90" rx="27" ry="18"/>
<text text-anchor="middle" x="477.49" y="-86.3" font-family="Times,serif" font-size="14.00">ret</text>
</g>
<!-- 0x56497a9c9cf0&#45;&gt;0x56497a9e33c0 -->
<g id="edge23" class="edge">
<title>0x56497a9c9cf0&#45;&gt;0x56497a9e33c0</title>
<path fill="none" stroke="black" d="M449.03,-505.1C437.67,-495.57 424.47,-482.51 416.49,-468 397.01,-432.55 397.49,-419.45 397.49,-379 397.49,-379 397.49,-379 397.49,-233 397.49,-185.3 432.18,-138.85 455.87,-112.69"/>
<polygon fill="black" stroke="black" points="458.56,-114.94 462.82,-105.24 453.44,-110.16 458.56,-114.94"/>
</g>
<!-- 0x56497a9d7ae0 -->
<g id="node19" class="node">
<title>0x56497a9d7ae0</title>
<polygon fill="purple" stroke="black" points="520.99,-468 425.99,-468 425.99,-432 520.99,-432 520.99,-468"/>
<text text-anchor="middle" x="473.49" y="-446.3" font-family="Times,serif" font-size="14.00">source_roll</text>
</g>
<!-- 0x56497a9c9cf0&#45;&gt;0x56497a9d7ae0 -->
<g id="edge24" class="edge">
<title>0x56497a9c9cf0&#45;&gt;0x56497a9d7ae0</title>
<path fill="none" stroke="black" d="M471.24,-503.7C471.57,-495.98 471.96,-486.71 472.33,-478.11"/>
<polygon fill="black" stroke="black" points="475.83,-478.25 472.76,-468.1 468.84,-477.95 475.83,-478.25"/>
</g>
<!-- 0x56497a9d7ed0 -->
<g id="node20" class="node">
<title>0x56497a9d7ed0</title>
<polygon fill="purple" stroke="black" points="519.49,-396 427.49,-396 427.49,-360 519.49,-360 519.49,-396"/>
<text text-anchor="middle" x="473.49" y="-374.3" font-family="Times,serif" font-size="14.00">target_roll</text>
</g>
<!-- 0x56497a9d7ae0&#45;&gt;0x56497a9d7ed0 -->
<g id="edge25" class="edge">
<title>0x56497a9d7ae0&#45;&gt;0x56497a9d7ed0</title>
<path fill="none" stroke="black" d="M473.49,-431.7C473.49,-423.98 473.49,-414.71 473.49,-406.11"/>
<polygon fill="black" stroke="black" points="476.99,-406.1 473.49,-396.1 469.99,-406.1 476.99,-406.1"/>
</g>
<!-- 0x56497a9d7ed0&#45;&gt;0x56497a9e33c0 -->
<g id="edge26" class="edge">
<title>0x56497a9d7ed0&#45;&gt;0x56497a9e33c0</title>
<path fill="none" stroke="black" d="M468.8,-359.84C458.87,-320.98 437.99,-223.48 454.49,-144 456.45,-134.58 460.17,-124.78 464.05,-116.21"/>
<polygon fill="black" stroke="black" points="467.24,-117.66 468.43,-107.13 460.93,-114.62 467.24,-117.66"/>
</g>
<!-- 0x56497a9db1f0 -->
<g id="node21" class="node">
<title>0x56497a9db1f0</title>
<polygon fill="none" stroke="black" points="575.49,-180 463.49,-180 463.49,-144 575.49,-144 575.49,-180"/>
<text text-anchor="middle" x="519.49" y="-158.3" font-family="Times,serif" font-size="14.00">face_attacker</text>
</g>
<!-- 0x56497a9d7ed0&#45;&gt;0x56497a9db1f0 -->
<g id="edge27" class="edge">
<title>0x56497a9d7ed0&#45;&gt;0x56497a9db1f0</title>
<path fill="none" stroke="black" d="M476.6,-359.53C481.95,-329.9 493.49,-267.92 505.49,-216 507.45,-207.52 509.8,-198.34 512.01,-190.04"/>
<polygon fill="black" stroke="black" points="515.46,-190.69 514.68,-180.12 508.7,-188.86 515.46,-190.69"/>
</g>
<!-- 0x56497a9d92a0 -->
<g id="node22" class="node">
<title>0x56497a9d92a0</title>
<polygon fill="none" stroke="black" points="605.49,-324 501.49,-324 501.49,-288 605.49,-288 605.49,-324"/>
<text text-anchor="middle" x="553.49" y="-302.3" font-family="Times,serif" font-size="14.00">guard_reroll</text>
</g>
<!-- 0x56497a9d7ed0&#45;&gt;0x56497a9d92a0 -->
<g id="edge28" class="edge">
<title>0x56497a9d7ed0&#45;&gt;0x56497a9d92a0</title>
<path fill="none" stroke="black" d="M493.27,-359.7C503.25,-350.97 515.51,-340.24 526.35,-330.75"/>
<polygon fill="black" stroke="black" points="528.73,-333.32 533.95,-324.1 524.12,-328.06 528.73,-333.32"/>
</g>
<!-- 0x56497a9db1f0&#45;&gt;0x56497a9e33c0 -->
<g id="edge32" class="edge">
<title>0x56497a9db1f0&#45;&gt;0x56497a9e33c0</title>
<path fill="none" stroke="black" d="M509.11,-143.7C504.08,-135.32 497.95,-125.1 492.43,-115.9"/>
<polygon fill="black" stroke="black" points="495.33,-113.92 487.18,-107.14 489.33,-117.52 495.33,-113.92"/>
</g>
<!-- 0x56497a9d9330 -->
<g id="node23" class="node">
<title>0x56497a9d9330</title>
<polygon fill="none" stroke="black" points="591.99,-252 514.99,-252 514.99,-216 591.99,-216 591.99,-252"/>
<text text-anchor="middle" x="553.49" y="-230.3" font-family="Times,serif" font-size="14.00">roll_dice</text>
</g>
<!-- 0x56497a9d92a0&#45;&gt;0x56497a9d9330 -->
<g id="edge29" class="edge">
<title>0x56497a9d92a0&#45;&gt;0x56497a9d9330</title>
<path fill="none" stroke="black" d="M553.49,-287.7C553.49,-279.98 553.49,-270.71 553.49,-262.11"/>
<polygon fill="black" stroke="black" points="556.99,-262.1 553.49,-252.1 549.99,-262.1 556.99,-262.1"/>
</g>
<!-- 0x56497a9d9330&#45;&gt;0x56497a9e33c0 -->
<g id="edge30" class="edge">
<title>0x56497a9d9330&#45;&gt;0x56497a9e33c0</title>
<path fill="none" stroke="black" d="M567.86,-215.95C581.74,-197.28 598.73,-166.94 584.49,-144 569.03,-119.08 537.97,-105.51 513.28,-98.36"/>
<polygon fill="black" stroke="black" points="514.06,-94.95 503.49,-95.76 512.26,-101.72 514.06,-94.95"/>
</g>
<!-- 0x56497a9d9330&#45;&gt;0x56497a9db1f0 -->
<g id="edge31" class="edge">
<title>0x56497a9d9330&#45;&gt;0x56497a9db1f0</title>
<path fill="none" stroke="black" d="M545.09,-215.7C541.22,-207.73 536.54,-198.1 532.25,-189.26"/>
<polygon fill="black" stroke="black" points="535.32,-187.57 527.8,-180.1 529.02,-190.63 535.32,-187.57"/>
</g>
<!-- 0x56497a9e3a00 -->
<g id="node24" class="node">
<title>0x56497a9e3a00</title>
<ellipse fill="green" stroke="black" cx="643.49" cy="-522" rx="61.99" ry="18"/>
<text text-anchor="middle" x="643.49" y="-518.3" font-family="Times,serif" font-size="14.00">place_blips</text>
</g>
<!-- 0x56497a9e4be0 -->
<g id="node25" class="node">
<title>0x56497a9e4be0</title>
<polygon fill="none" stroke="black" points="627.49,-468 539.49,-468 539.49,-432 627.49,-432 627.49,-468"/>
<text text-anchor="middle" x="583.49" y="-446.3" font-family="Times,serif" font-size="14.00">place_blip</text>
</g>
<!-- 0x56497a9e3a00&#45;&gt;0x56497a9e4be0 -->
<g id="edge33" class="edge">
<title>0x56497a9e3a00&#45;&gt;0x56497a9e4be0</title>
<path fill="none" stroke="black" d="M629.28,-504.41C622.02,-495.95 613.04,-485.47 604.97,-476.05"/>
<polygon fill="black" stroke="black" points="607.61,-473.76 598.45,-468.45 602.3,-478.32 607.61,-473.76"/>
</g>
<!-- 0x56497a9e7f60 -->
<g id="node26" class="node">
<title>0x56497a9e7f60</title>
<ellipse fill="none" stroke="black" cx="624.49" cy="-378" rx="27" ry="18"/>
<text text-anchor="middle" x="624.49" y="-374.3" font-family="Times,serif" font-size="14.00">ret</text>
</g>
<!-- 0x56497a9e3a00&#45;&gt;0x56497a9e7f60 -->
<g id="edge34" class="edge">
<title>0x56497a9e3a00&#45;&gt;0x56497a9e7f60</title>
<path fill="none" stroke="black" d="M649.35,-504.01C654.73,-485.91 660.96,-456.54 654.49,-432 651.82,-421.83 646.69,-411.56 641.43,-402.81"/>
<polygon fill="black" stroke="black" points="644.32,-400.84 635.98,-394.3 638.42,-404.61 644.32,-400.84"/>
</g>
<!-- 0x56497a9e4be0&#45;&gt;0x56497a9e4be0 -->
<g id="edge35" class="edge">
<title>0x56497a9e4be0&#45;&gt;0x56497a9e4be0</title>
<path fill="none" stroke="black" d="M627.52,-463.23C637.86,-462.15 645.49,-457.73 645.49,-450 645.49,-445.05 642.36,-441.45 637.39,-439.23"/>
<polygon fill="black" stroke="black" points="638.07,-435.79 627.52,-436.77 636.38,-442.58 638.07,-435.79"/>
</g>
<!-- 0x56497a9e4be0&#45;&gt;0x56497a9e7f60 -->
<g id="edge36" class="edge">
<title>0x56497a9e4be0&#45;&gt;0x56497a9e7f60</title>
<path fill="none" stroke="black" d="M593.63,-431.7C598.54,-423.32 604.52,-413.1 609.91,-403.9"/>
<polygon fill="black" stroke="black" points="613,-405.54 615.04,-395.14 606.96,-402 613,-405.54"/>
</g>
<!-- 0x56497a98dde0 -->
<g id="node27" class="node">
<title>0x56497a98dde0</title>
<polygon fill="none" stroke="black" points="1191.99,-540 1100.99,-540 1100.99,-504 1191.99,-504 1191.99,-540"/>
<text text-anchor="middle" x="1146.49" y="-518.3" font-family="Times,serif" font-size="14.00">overwatch</text>
</g>
<!-- 0x56497aa0e650 -->
<g id="node28" class="node">
<title>0x56497aa0e650</title>
<polygon fill="none" stroke="black" points="1146.49,-468 1119.49,-450 1146.49,-432 1173.49,-450 1146.49,-468"/>
</g>
<!-- 0x56497a98dde0&#45;&gt;0x56497aa0e650 -->
<g id="edge37" class="edge">
<title>0x56497a98dde0&#45;&gt;0x56497aa0e650</title>
<path fill="none" stroke="black" d="M1140.58,-503.7C1139.67,-494.87 1139.5,-484.01 1140.08,-474.45"/>
<polygon fill="black" stroke="black" points="1143.58,-474.66 1141.05,-464.38 1136.61,-473.99 1143.58,-474.66"/>
</g>
<!-- 0x56497aa0ef80 -->
<g id="node29" class="node">
<title>0x56497aa0ef80</title>
<ellipse fill="none" stroke="black" cx="1155.49" cy="-162" rx="27" ry="18"/>
<text text-anchor="middle" x="1155.49" y="-158.3" font-family="Times,serif" font-size="14.00">ret</text>
</g>
<!-- 0x56497a98dde0&#45;&gt;0x56497aa0ef80 -->
<g id="edge38" class="edge">
<title>0x56497a98dde0&#45;&gt;0x56497aa0ef80</title>
<path fill="none" stroke="black" d="M1100.8,-515.67C990.64,-501.54 719.49,-458.69 719.49,-379 719.49,-379 719.49,-379 719.49,-305 719.49,-221.3 1013.66,-179.3 1118.74,-166.96"/>
<polygon fill="black" stroke="black" points="1119.34,-170.41 1128.88,-165.79 1118.54,-163.46 1119.34,-170.41"/>
</g>
<!-- 0x56497aa0e650&#45;&gt;0x56497a98dde0 -->
<g id="edge69" class="edge">
<title>0x56497aa0e650&#45;&gt;0x56497a98dde0</title>
<path fill="none" stroke="black" d="M1151.94,-464.38C1153.1,-472.67 1153.49,-483.62 1153.1,-493.68"/>
<polygon fill="black" stroke="black" points="1149.6,-493.48 1152.41,-503.7 1156.59,-493.96 1149.6,-493.48"/>
</g>
<!-- 0x56497a994550 -->
<g id="node30" class="node">
<title>0x56497a994550</title>
<polygon fill="none" stroke="black" points="1570.49,-396 1502.49,-396 1502.49,-360 1570.49,-360 1570.49,-396"/>
<text text-anchor="middle" x="1536.49" y="-374.3" font-family="Times,serif" font-size="14.00">assault</text>
</g>
<!-- 0x56497aa0e650&#45;&gt;0x56497a994550 -->
<g id="edge64" class="edge">
<title>0x56497aa0e650&#45;&gt;0x56497a994550</title>
<path fill="none" stroke="black" d="M1169.6,-447.28C1224.42,-442.81 1366.6,-429.01 1492.65,-395.88"/>
<polygon fill="black" stroke="black" points="1493.71,-399.22 1502.46,-393.26 1491.9,-392.46 1493.71,-399.22"/>
</g>
<!-- 0x56497a9e0fb0 -->
<g id="node32" class="node">
<title>0x56497a9e0fb0</title>
<polygon fill="none" stroke="black" points="806.99,-396 747.99,-396 747.99,-360 806.99,-360 806.99,-396"/>
<text text-anchor="middle" x="777.49" y="-374.3" font-family="Times,serif" font-size="14.00">guard</text>
</g>
<!-- 0x56497aa0e650&#45;&gt;0x56497a9e0fb0 -->
<g id="edge70" class="edge">
<title>0x56497aa0e650&#45;&gt;0x56497a9e0fb0</title>
<path fill="none" stroke="black" d="M1122.8,-447.67C1068.05,-443.88 930.06,-431.11 816.68,-398.96"/>
<polygon fill="black" stroke="black" points="817.41,-395.53 806.83,-396.1 815.46,-402.25 817.41,-395.53"/>
</g>
<!-- 0x56497a9e6630 -->
<g id="node35" class="node">
<title>0x56497a9e6630</title>
<polygon fill="none" stroke="black" points="925.99,-396 824.99,-396 824.99,-360 925.99,-360 925.99,-396"/>
<text text-anchor="middle" x="875.49" y="-374.3" font-family="Times,serif" font-size="14.00">begin_move</text>
</g>
<!-- 0x56497aa0e650&#45;&gt;0x56497a9e6630 -->
<g id="edge67" class="edge">
<title>0x56497aa0e650&#45;&gt;0x56497a9e6630</title>
<path fill="none" stroke="black" d="M1128.02,-444.27C1091.96,-435.04 1009.66,-413.94 940.49,-396 939.05,-395.62 937.58,-395.24 936.11,-394.86"/>
<polygon fill="black" stroke="black" points="936.79,-391.42 926.23,-392.29 935.03,-398.2 936.79,-391.42"/>
</g>
<!-- 0x56497a9eb740 -->
<g id="node38" class="node">
<title>0x56497a9eb740</title>
<polygon fill="none" stroke="black" points="1036.49,-396 982.49,-396 982.49,-360 1036.49,-360 1036.49,-396"/>
<text text-anchor="middle" x="1009.49" y="-374.3" font-family="Times,serif" font-size="14.00">turn</text>
</g>
<!-- 0x56497aa0e650&#45;&gt;0x56497a9eb740 -->
<g id="edge68" class="edge">
<title>0x56497aa0e650&#45;&gt;0x56497a9eb740</title>
<path fill="none" stroke="black" d="M1130.29,-442.79C1109.39,-433.41 1072.96,-415.18 1045.48,-400.6"/>
<polygon fill="black" stroke="black" points="1047.01,-397.45 1036.54,-395.82 1043.71,-403.62 1047.01,-397.45"/>
</g>
<!-- 0x56497a9ed280 -->
<g id="node39" class="node">
<title>0x56497a9ed280</title>
<polygon fill="none" stroke="black" points="1110.49,-252 1024.49,-252 1024.49,-216 1110.49,-216 1110.49,-252"/>
<text text-anchor="middle" x="1067.49" y="-230.3" font-family="Times,serif" font-size="14.00">pass_turn</text>
</g>
<!-- 0x56497aa0e650&#45;&gt;0x56497a9ed280 -->
<g id="edge63" class="edge">
<title>0x56497aa0e650&#45;&gt;0x56497a9ed280</title>
<path fill="none" stroke="black" d="M1138.19,-437.27C1131.11,-426.84 1121.06,-410.96 1114.49,-396 1094.73,-350.97 1080.58,-295.27 1073.25,-262.59"/>
<polygon fill="black" stroke="black" points="1076.58,-261.45 1071.02,-252.43 1069.75,-262.95 1076.58,-261.45"/>
</g>
<!-- 0x56497a9ed720 -->
<g id="node40" class="node">
<title>0x56497a9ed720</title>
<polygon fill="none" stroke="black" points="1182.49,-252 1128.49,-252 1128.49,-216 1182.49,-216 1182.49,-252"/>
<text text-anchor="middle" x="1155.49" y="-230.3" font-family="Times,serif" font-size="14.00">quit</text>
</g>
<!-- 0x56497aa0e650&#45;&gt;0x56497a9ed720 -->
<g id="edge61" class="edge">
<title>0x56497aa0e650&#45;&gt;0x56497a9ed720</title>
<path fill="none" stroke="black" d="M1138.9,-436.92C1132.84,-426.53 1124.83,-410.89 1121.49,-396 1110.96,-348.96 1129.08,-293.98 1142.66,-261.97"/>
<polygon fill="black" stroke="black" points="1146.04,-262.98 1146.87,-252.42 1139.64,-260.16 1146.04,-262.98"/>
</g>
<!-- 0x56497a9ef330 -->
<g id="node41" class="node">
<title>0x56497a9ef330</title>
<polygon fill="none" stroke="black" points="1364.49,-396 1308.49,-396 1308.49,-360 1364.49,-360 1364.49,-396"/>
<text text-anchor="middle" x="1336.49" y="-374.3" font-family="Times,serif" font-size="14.00">shoot</text>
</g>
<!-- 0x56497aa0e650&#45;&gt;0x56497a9ef330 -->
<g id="edge66" class="edge">
<title>0x56497aa0e650&#45;&gt;0x56497a9ef330</title>
<path fill="none" stroke="black" d="M1163.45,-443.18C1191.04,-433.66 1247.32,-413.99 1294.49,-396 1295.87,-395.47 1297.27,-394.93 1298.69,-394.39"/>
<polygon fill="black" stroke="black" points="1300.07,-397.6 1308.09,-390.68 1297.5,-391.09 1300.07,-397.6"/>
</g>
<!-- 0x56497aa063c0 -->
<g id="node42" class="node">
<title>0x56497aa063c0</title>
<polygon fill="none" stroke="black" points="1251.99,-396 1130.99,-396 1130.99,-360 1251.99,-360 1251.99,-396"/>
<text text-anchor="middle" x="1191.49" y="-374.3" font-family="Times,serif" font-size="14.00">clear_jamming</text>
</g>
<!-- 0x56497aa0e650&#45;&gt;0x56497aa063c0 -->
<g id="edge65" class="edge">
<title>0x56497aa0e650&#45;&gt;0x56497aa063c0</title>
<path fill="none" stroke="black" d="M1150.4,-434.15C1154.87,-425.53 1161.72,-414.42 1168.62,-404.43"/>
<polygon fill="black" stroke="black" points="1171.66,-406.2 1174.65,-396.04 1165.98,-402.12 1171.66,-406.2"/>
</g>
<!-- 0x56497aa086e0 -->
<g id="node43" class="node">
<title>0x56497aa086e0</title>
<polygon fill="none" stroke="black" points="1483.99,-396 1382.99,-396 1382.99,-360 1483.99,-360 1483.99,-396"/>
<text text-anchor="middle" x="1433.49" y="-374.3" font-family="Times,serif" font-size="14.00">toggle_door</text>
</g>
<!-- 0x56497aa0e650&#45;&gt;0x56497aa086e0 -->
<g id="edge62" class="edge">
<title>0x56497aa0e650&#45;&gt;0x56497aa086e0</title>
<path fill="none" stroke="black" d="M1164.41,-443.94C1202,-434.9 1290.44,-415.13 1364.49,-396 1367.25,-395.29 1370.06,-394.55 1372.92,-393.78"/>
<polygon fill="black" stroke="black" points="1373.96,-397.13 1382.7,-391.14 1372.13,-390.37 1373.96,-397.13"/>
</g>
<!-- 0x56497aa04c90 -->
<g id="node31" class="node">
<title>0x56497aa04c90</title>
<polygon fill="orange" stroke="orange" points="1594.49,-324 1478.49,-324 1478.49,-288 1594.49,-288 1594.49,-324"/>
<text text-anchor="middle" x="1536.49" y="-302.3" font-family="Times,serif" font-size="14.00">assault_frame</text>
</g>
<!-- 0x56497a994550&#45;&gt;0x56497aa04c90 -->
<g id="edge39" class="edge">
<title>0x56497a994550&#45;&gt;0x56497aa04c90</title>
<path fill="none" stroke="black" d="M1536.49,-359.7C1536.49,-351.98 1536.49,-342.71 1536.49,-334.11"/>
<polygon fill="black" stroke="black" points="1539.99,-334.1 1536.49,-324.1 1532.99,-334.1 1539.99,-334.1"/>
</g>
<!-- 0x56497aa04c90&#45;&gt;0x56497aa0e650 -->
<g id="edge55" class="edge">
<title>0x56497aa04c90&#45;&gt;0x56497aa0e650</title>
<path fill="none" stroke="black" d="M1555.36,-324.01C1574.4,-343.2 1598.49,-374.54 1579.49,-396 1553.13,-425.79 1278.33,-442.38 1180.69,-447.37"/>
<polygon fill="black" stroke="black" points="1180.29,-443.89 1170.48,-447.89 1180.64,-450.88 1180.29,-443.89"/>
</g>
<!-- 0x56497aa04c90&#45;&gt;0x56497aa0ef80 -->
<g id="edge56" class="edge">
<title>0x56497aa04c90&#45;&gt;0x56497aa0ef80</title>
<path fill="none" stroke="black" d="M1522.9,-287.87C1505.59,-267.33 1473.69,-233.49 1438.49,-216 1357.33,-175.66 1249.18,-165.88 1192.98,-163.6"/>
<polygon fill="black" stroke="black" points="1192.9,-160.1 1182.78,-163.25 1192.65,-167.09 1192.9,-160.1"/>
</g>
<!-- 0x56497a9e0fb0&#45;&gt;0x56497aa0e650 -->
<g id="edge40" class="edge">
<title>0x56497a9e0fb0&#45;&gt;0x56497aa0e650</title>
<path fill="none" stroke="black" d="M807.13,-389.54C812.88,-391.95 818.82,-394.31 824.49,-396 927.67,-426.76 1054.57,-440.74 1113.64,-446.13"/>
<polygon fill="black" stroke="black" points="1113.58,-449.64 1123.85,-447.04 1114.2,-442.66 1113.58,-449.64"/>
</g>
<!-- 0x56497a9e0fb0&#45;&gt;0x56497aa0ef80 -->
<g id="edge41" class="edge">
<title>0x56497a9e0fb0&#45;&gt;0x56497aa0ef80</title>
<path fill="none" stroke="black" d="M790.34,-359.79C816.19,-326.47 877.96,-253.19 947.49,-216 1002.9,-186.37 1075.54,-172.78 1118.69,-166.95"/>
<polygon fill="black" stroke="black" points="1119.26,-170.41 1128.73,-165.67 1118.37,-163.47 1119.26,-170.41"/>
</g>
<!-- 0x56497a9e1bc0 -->
<g id="node33" class="node">
<title>0x56497a9e1bc0</title>
<polygon fill="none" stroke="black" points="1318.99,-252 1241.99,-252 1241.99,-216 1318.99,-216 1318.99,-252"/>
<text text-anchor="middle" x="1280.49" y="-230.3" font-family="Times,serif" font-size="14.00">roll_dice</text>
</g>
<!-- 0x56497a9e1bc0&#45;&gt;0x56497aa0e650 -->
<g id="edge42" class="edge">
<title>0x56497a9e1bc0&#45;&gt;0x56497aa0e650</title>
<path fill="none" stroke="black" d="M1283.37,-252.21C1287.69,-283.94 1292.25,-352.4 1260.49,-396 1240.75,-423.1 1203.66,-436.76 1177.14,-443.35"/>
<polygon fill="black" stroke="black" points="1176.18,-439.98 1167.21,-445.62 1177.74,-446.81 1176.18,-439.98"/>
</g>
<!-- 0x56497a9e1bc0&#45;&gt;0x56497aa0ef80 -->
<g id="edge43" class="edge">
<title>0x56497a9e1bc0&#45;&gt;0x56497aa0ef80</title>
<path fill="none" stroke="black" d="M1249.92,-215.88C1229.95,-204.69 1204.04,-190.19 1184.42,-179.2"/>
<polygon fill="black" stroke="black" points="1186.05,-176.1 1175.61,-174.27 1182.63,-182.21 1186.05,-176.1"/>
</g>
<!-- 0x56497a9e2c40 -->
<g id="node34" class="node">
<title>0x56497a9e2c40</title>
<polygon fill="none" stroke="black" points="1385.99,-324 1308.99,-324 1308.99,-288 1385.99,-288 1385.99,-324"/>
<text text-anchor="middle" x="1347.49" y="-302.3" font-family="Times,serif" font-size="14.00">roll_dice</text>
</g>
<!-- 0x56497a9e2c40&#45;&gt;0x56497a9e1bc0 -->
<g id="edge44" class="edge">
<title>0x56497a9e2c40&#45;&gt;0x56497a9e1bc0</title>
<path fill="none" stroke="black" d="M1330.93,-287.7C1322.82,-279.22 1312.91,-268.86 1304.02,-259.58"/>
<polygon fill="black" stroke="black" points="1306.31,-256.91 1296.87,-252.1 1301.25,-261.75 1306.31,-256.91"/>
</g>
<!-- 0x56497a9eaab0 -->
<g id="node36" class="node">
<title>0x56497a9eaab0</title>
<polygon fill="yellow" stroke="black" points="968.49,-324 876.49,-324 876.49,-288 968.49,-288 968.49,-324"/>
<text text-anchor="middle" x="922.49" y="-302.3" font-family="Times,serif" font-size="14.00">movement</text>
</g>
<!-- 0x56497a9e6630&#45;&gt;0x56497a9eaab0 -->
<g id="edge45" class="edge">
<title>0x56497a9e6630&#45;&gt;0x56497a9eaab0</title>
<path fill="none" stroke="black" d="M887.11,-359.7C892.63,-351.47 899.34,-341.48 905.43,-332.42"/>
<polygon fill="black" stroke="black" points="908.34,-334.36 911.01,-324.1 902.53,-330.46 908.34,-334.36"/>
</g>
<!-- 0x56497a9eaab0&#45;&gt;0x56497aa0e650 -->
<g id="edge48" class="edge">
<title>0x56497a9eaab0&#45;&gt;0x56497aa0e650</title>
<path fill="none" stroke="black" d="M928.01,-324.34C935.28,-344.45 949.98,-377.22 973.49,-396 1014.38,-428.65 1075.29,-441.25 1112.87,-446.07"/>
<polygon fill="black" stroke="black" points="1112.94,-449.6 1123.27,-447.28 1113.75,-442.65 1112.94,-449.6"/>
</g>
<!-- 0x56497a9eaab0&#45;&gt;0x56497aa0ef80 -->
<g id="edge49" class="edge">
<title>0x56497a9eaab0&#45;&gt;0x56497aa0ef80</title>
<path fill="none" stroke="black" d="M929.64,-288C938.93,-267.91 957.04,-234.85 982.49,-216 1023.34,-185.75 1081.65,-172.57 1119.04,-166.96"/>
<polygon fill="black" stroke="black" points="1119.58,-170.42 1129,-165.57 1118.62,-163.49 1119.58,-170.42"/>
</g>
<!-- 0x56497a9e88f0 -->
<g id="node37" class="node">
<title>0x56497a9e88f0</title>
<ellipse fill="red" stroke="black" cx="1436.49" cy="-522" rx="70.69" ry="18"/>
<text text-anchor="middle" x="1436.49" y="-518.3" font-family="Times,serif" font-size="14.00">action_phase</text>
</g>
<!-- 0x56497a9e88f0&#45;&gt;0x56497aa0e650 -->
<g id="edge46" class="edge">
<title>0x56497a9e88f0&#45;&gt;0x56497aa0e650</title>
<path fill="none" stroke="black" d="M1386.97,-509.05C1326.08,-494.35 1224.76,-469.89 1175.36,-457.97"/>
<polygon fill="black" stroke="black" points="1175.9,-454.5 1165.36,-455.55 1174.26,-461.3 1175.9,-454.5"/>
</g>
<!-- 0x56497a9e88f0&#45;&gt;0x56497aa0ef80 -->
<g id="edge47" class="edge">
<title>0x56497a9e88f0&#45;&gt;0x56497aa0ef80</title>
<path fill="none" stroke="black" d="M1486.19,-509.05C1545.42,-491.51 1636.49,-452.56 1636.49,-379 1636.49,-379 1636.49,-379 1636.49,-305 1636.49,-212.53 1305.39,-175.75 1192.6,-165.91"/>
<polygon fill="black" stroke="black" points="1192.65,-162.4 1182.39,-165.04 1192.05,-169.37 1192.65,-162.4"/>
</g>
<!-- 0x56497a9eb740&#45;&gt;0x56497aa0e650 -->
<g id="edge50" class="edge">
<title>0x56497a9eb740&#45;&gt;0x56497aa0e650</title>
<path fill="none" stroke="black" d="M1036.67,-390.27C1062.68,-402.52 1101.13,-422.1 1125.07,-435.24"/>
<polygon fill="black" stroke="black" points="1123.63,-438.45 1134.06,-440.28 1127.04,-432.34 1123.63,-438.45"/>
</g>
<!-- 0x56497a9eb740&#45;&gt;0x56497aa0ef80 -->
<g id="edge51" class="edge">
<title>0x56497a9eb740&#45;&gt;0x56497aa0ef80</title>
<path fill="none" stroke="black" d="M1004.49,-359.77C996.39,-328.01 984.24,-259.5 1015.49,-216 1039.03,-183.24 1085.49,-170.72 1118.42,-165.94"/>
<polygon fill="black" stroke="black" points="1119.11,-169.38 1128.59,-164.65 1118.23,-162.44 1119.11,-169.38"/>
</g>
<!-- 0x56497a9ed280&#45;&gt;0x56497aa0ef80 -->
<g id="edge52" class="edge">
<title>0x56497a9ed280&#45;&gt;0x56497aa0ef80</title>
<path fill="none" stroke="black" d="M1089.25,-215.7C1101.77,-205.73 1117.56,-193.17 1130.58,-182.81"/>
<polygon fill="black" stroke="black" points="1133.03,-185.34 1138.68,-176.38 1128.68,-179.86 1133.03,-185.34"/>
</g>
<!-- 0x56497a9ed720&#45;&gt;0x56497aa0ef80 -->
<g id="edge53" class="edge">
<title>0x56497a9ed720&#45;&gt;0x56497aa0ef80</title>
<path fill="none" stroke="black" d="M1155.49,-215.7C1155.49,-207.98 1155.49,-198.71 1155.49,-190.11"/>
<polygon fill="black" stroke="black" points="1158.99,-190.1 1155.49,-180.1 1151.99,-190.1 1158.99,-190.1"/>
</g>
<!-- 0x56497a9ef330&#45;&gt;0x56497a9e2c40 -->
<g id="edge54" class="edge">
<title>0x56497a9ef330&#45;&gt;0x56497a9e2c40</title>
<path fill="none" stroke="black" d="M1339.21,-359.7C1340.43,-351.98 1341.88,-342.71 1343.23,-334.11"/>
<polygon fill="black" stroke="black" points="1346.71,-334.53 1344.81,-324.1 1339.8,-333.44 1346.71,-334.53"/>
</g>
<!-- 0x56497aa063c0&#45;&gt;0x56497aa0e650 -->
<g id="edge57" class="edge">
<title>0x56497aa063c0&#45;&gt;0x56497aa0e650</title>
<path fill="none" stroke="black" d="M1186.35,-396.19C1180.59,-406.88 1171.78,-420.6 1163.78,-431.37"/>
<polygon fill="black" stroke="black" points="1161,-429.23 1157.6,-439.27 1166.52,-433.55 1161,-429.23"/>
</g>
<!-- 0x56497aa063c0&#45;&gt;0x56497aa0ef80 -->
<g id="edge58" class="edge">
<title>0x56497aa063c0&#45;&gt;0x56497aa0ef80</title>
<path fill="none" stroke="black" d="M1194.76,-359.59C1199.7,-329.51 1206.94,-266.23 1191.49,-216 1188.21,-205.31 1181.95,-194.85 1175.57,-186.08"/>
<polygon fill="black" stroke="black" points="1178.14,-183.69 1169.25,-177.93 1172.61,-187.98 1178.14,-183.69"/>
</g>
<!-- 0x56497aa086e0&#45;&gt;0x56497aa0e650 -->
<g id="edge59" class="edge">
<title>0x56497aa086e0&#45;&gt;0x56497aa0e650</title>
<path fill="none" stroke="black" d="M1382.81,-395.92C1382.7,-395.95 1382.6,-395.97 1382.49,-396 1309.43,-414.87 1222.36,-434.37 1176.98,-443.57"/>
<polygon fill="black" stroke="black" points="1176.29,-440.14 1167.16,-445.53 1177.66,-447.01 1176.29,-440.14"/>
</g>
<!-- 0x56497aa086e0&#45;&gt;0x56497aa0ef80 -->
<g id="edge60" class="edge">
<title>0x56497aa086e0&#45;&gt;0x56497aa0ef80</title>
<path fill="none" stroke="black" d="M1428.15,-359.71C1421.95,-341.09 1410.6,-311.04 1395.49,-288 1371.37,-251.19 1364.87,-239.25 1327.49,-216 1284.99,-189.56 1228.34,-175.46 1191.88,-168.61"/>
<polygon fill="black" stroke="black" points="1192.17,-165.1 1181.71,-166.78 1190.93,-171.99 1192.17,-165.1"/>
</g>
<!-- 0x56497a9dee10 -->
<g id="node44" class="node">
<title>0x56497a9dee10</title>
<polygon fill="red" stroke="black" points="1843.49,-396 1727.49,-396 1727.49,-360 1843.49,-360 1843.49,-396"/>
<text text-anchor="middle" x="1785.49" y="-374.3" font-family="Times,serif" font-size="14.00">marine_phase</text>
</g>
<!-- 0x56497a9df240 -->
<g id="node45" class="node">
<title>0x56497a9df240</title>
<polygon fill="green" stroke="black" points="1868.99,-324 1701.99,-324 1701.99,-288 1868.99,-288 1868.99,-324"/>
<text text-anchor="middle" x="1785.49" y="-302.3" font-family="Times,serif" font-size="14.00">reinforcement_phase</text>
</g>
<!-- 0x56497a9dee10&#45;&gt;0x56497a9df240 -->
<g id="edge71" class="edge">
<title>0x56497a9dee10&#45;&gt;0x56497a9df240</title>
<path fill="none" stroke="black" d="M1785.49,-359.7C1785.49,-351.98 1785.49,-342.71 1785.49,-334.11"/>
<polygon fill="black" stroke="black" points="1788.99,-334.1 1785.49,-324.1 1781.99,-334.1 1788.99,-334.1"/>
</g>
<!-- 0x56497a9fbd30 -->
<g id="node46" class="node">
<title>0x56497a9fbd30</title>
<polygon fill="red" stroke="black" points="1821.99,-252 1672.99,-252 1672.99,-216 1821.99,-216 1821.99,-252"/>
<text text-anchor="middle" x="1747.49" y="-230.3" font-family="Times,serif" font-size="14.00">genestealer_phase</text>
</g>
<!-- 0x56497a9df240&#45;&gt;0x56497a9fbd30 -->
<g id="edge72" class="edge">
<title>0x56497a9df240&#45;&gt;0x56497a9fbd30</title>
<path fill="none" stroke="black" d="M1776.1,-287.7C1771.73,-279.64 1766.44,-269.89 1761.6,-260.98"/>
<polygon fill="black" stroke="black" points="1764.63,-259.22 1756.78,-252.1 1758.47,-262.56 1764.63,-259.22"/>
</g>
<!-- 0x56497a9fc250 -->
<g id="node47" class="node">
<title>0x56497a9fc250</title>
<ellipse fill="none" stroke="black" cx="1849.49" cy="-162" rx="27" ry="18"/>
<text text-anchor="middle" x="1849.49" y="-158.3" font-family="Times,serif" font-size="14.00">ret</text>
</g>
<!-- 0x56497a9df240&#45;&gt;0x56497a9fc250 -->
<g id="edge73" class="edge">
<title>0x56497a9df240&#45;&gt;0x56497a9fc250</title>
<path fill="none" stroke="black" d="M1804.72,-287.6C1814.18,-278 1824.93,-265.34 1831.49,-252 1841.03,-232.61 1845.52,-208.46 1847.63,-190.21"/>
<polygon fill="black" stroke="black" points="1851.11,-190.53 1848.61,-180.23 1844.15,-189.84 1851.11,-190.53"/>
</g>
<!-- 0x56497a9fbd30&#45;&gt;0x56497a9dee10 -->
<g id="edge77" class="edge">
<title>0x56497a9fbd30&#45;&gt;0x56497a9dee10</title>
<path fill="none" stroke="black" d="M1722.57,-252.14C1711.44,-261.33 1699.49,-273.71 1693.49,-288 1687.3,-302.75 1685.49,-310.15 1693.49,-324 1701.06,-337.1 1713.23,-347.24 1726.28,-354.98"/>
<polygon fill="black" stroke="black" points="1724.95,-358.25 1735.4,-359.97 1728.3,-352.1 1724.95,-358.25"/>
</g>
<!-- 0x56497a9fbd30&#45;&gt;0x56497a9fc250 -->
<g id="edge78" class="edge">
<title>0x56497a9fbd30&#45;&gt;0x56497a9fc250</title>
<path fill="none" stroke="black" d="M1772.45,-215.88C1787.63,-205.45 1807.03,-192.14 1822.56,-181.48"/>
<polygon fill="black" stroke="black" points="1824.93,-184.1 1831.2,-175.56 1820.97,-178.33 1824.93,-184.1"/>
</g>
<!-- 0x56497a9ebd20 -->
<g id="node48" class="node">
<title>0x56497a9ebd20</title>
<polygon fill="green" stroke="black" points="1889.99,-468 1790.99,-468 1790.99,-432 1889.99,-432 1889.99,-468"/>
<text text-anchor="middle" x="1840.49" y="-446.3" font-family="Times,serif" font-size="14.00">initial_blips</text>
</g>
<!-- 0x56497a9ebd20&#45;&gt;0x56497a9dee10 -->
<g id="edge74" class="edge">
<title>0x56497a9ebd20&#45;&gt;0x56497a9dee10</title>
<path fill="none" stroke="black" d="M1826.9,-431.7C1820.37,-423.39 1812.43,-413.28 1805.25,-404.14"/>
<polygon fill="black" stroke="black" points="1807.86,-401.81 1798.93,-396.1 1802.36,-406.13 1807.86,-401.81"/>
</g>
<!-- 0x56497a9ebd20&#45;&gt;0x56497a9fc250 -->
<g id="edge75" class="edge">
<title>0x56497a9ebd20&#45;&gt;0x56497a9fc250</title>
<path fill="none" stroke="black" d="M1847.43,-431.98C1856.69,-408.26 1872.59,-363.71 1878.49,-324 1885.58,-276.34 1870.54,-221.15 1859.59,-189.33"/>
<polygon fill="black" stroke="black" points="1862.87,-188.11 1856.21,-179.86 1856.27,-190.46 1862.87,-188.11"/>
</g>
<!-- 0x56497a9ed1f0 -->
<g id="node49" class="node">
<title>0x56497a9ed1f0</title>
<ellipse fill="none" stroke="black" cx="1840.49" cy="-522" rx="30.59" ry="18"/>
<text text-anchor="middle" x="1840.49" y="-518.3" font-family="Times,serif" font-size="14.00">play</text>
</g>
<!-- 0x56497a9ed1f0&#45;&gt;0x56497a9ebd20 -->
<g id="edge76" class="edge">
<title>0x56497a9ed1f0&#45;&gt;0x56497a9ebd20</title>
<path fill="none" stroke="black" d="M1840.49,-503.7C1840.49,-495.98 1840.49,-486.71 1840.49,-478.11"/>
<polygon fill="black" stroke="black" points="1843.99,-478.1 1840.49,-468.1 1836.99,-478.1 1843.99,-478.1"/>
</g>
</g>
</svg>
